HIERARCHY
ROOT ui
{
	 OFFSET 0 0 0
	 CHANNELS 3 XPosition YPosition Z Position
	 EndSite
	 {
	 OFFSET 0 -1 0
	 }
}
ROOT li
{
	 OFFSET 0 0 0
	 CHANNELS 3 XPosition YPosition Z Position
	 EndSite
	 {
	 OFFSET 0 -1 0
	 }
}
ROOT ul
{
	 OFFSET 0 0 0
	 CHANNELS 3 XPosition YPosition Z Position
	 EndSite
	 {
	 OFFSET 0 -1 0
	 }
}
ROOT ll
{
	 OFFSET 0 0 0
	 CHANNELS 3 XPosition YPosition Z Position
	 EndSite
	 {
	 OFFSET 0 -1 0
	 }
}
ROOT tt
{
	 OFFSET 0 0 0
	 CHANNELS 3 XPosition YPosition Z Position
	 EndSite
	 {
	 OFFSET 0 -1 0
	 }
}
ROOT tb
{
	 OFFSET 0 0 0
	 CHANNELS 3 XPosition YPosition Z Position
	 EndSite
	 {
	 OFFSET 0 -1 0
	 }
}
ROOT td
{
	 OFFSET 0 0 0
	 CHANNELS 3 XPosition YPosition Z Position
	 EndSite
	 {
	 OFFSET 0 -1 0
	 }
}
ROOT v
{
	 OFFSET 0 0 0
	 CHANNELS 3 XPosition YPosition Z Position
	 EndSite
	 {
	 OFFSET 0 -1 0
	 }
}
ROOT bn
{
	 OFFSET 0 0 0
	 CHANNELS 3 XPosition YPosition Z Position
	 EndSite
	 {
	 OFFSET 0 -1 0
	 }
}
MOTION
Frames: 30
Frame Time: 0.002
0.004155648231506348	-5.871970057487488E-4	0		0.5489624633789062	-2.473396484375	0		-1.0419486083984375	0.0958437271118164	0		-0.5881841430664062	-2.645995849609375	0		1.4724652099609374	-0.8076429443359375	0		3.006089599609375	0.05225719451904297	0		4.50166845703125	0.2848515625	0		5.79480517578125	0.3547579040527344	0		-0.2568818359375	5.9447421875	0		
0.0072064919471740724	-0.0053408842086791995	0		0.53195849609375	-2.478710205078125	0		-1.116742431640625	0.09885081481933594	0		-0.5900601806640625	-2.6456298828125	0		1.504720458984375	-0.8030706787109375	0		3.00669384765625	0.027507863998413085	0		4.4998369140625	0.2851405029296875	0		5.78409814453125	0.34189178466796877	0		-0.259582763671875	5.947125	0		
0.005422697067260742	-0.004994372844696045	0		0.5669026489257812	-2.489198486328125	0		-1.1057518310546874	0.08892615509033203	0		-0.6140142211914063	-2.650779541015625	0		1.4719095458984375	-0.8030527954101563	0		3.003179931640625	0.03984920501708984	0		4.49290185546875	0.27853045654296876	0		5.77528564453125	0.3756239013671875	0		-0.26031842041015624	5.94545361328125	0		
0.010862895011901855	0.002179874897003174	0		0.5085885620117188	-2.468601318359375	0		-1.0952218017578126	0.10000492095947265	0		-0.5756691284179688	-2.6463349609375	0		1.4732484130859376	-0.7998110961914062	0		3.006105712890625	0.024026519775390626	0		4.49845849609375	0.29063226318359375	0		5.78114453125	0.37046609497070315	0		-0.23152053833007813	5.96411328125	0		
0.030136159896850586	-0.001973428964614868	0		0.5567930297851562	-2.474412841796875	0		-1.0407313232421875	0.10508126831054687	0		-0.6123114624023438	-2.6442236328125	0		1.47160400390625	-0.7995173950195312	0		3.008079345703125	0.051221920013427735	0		4.5019873046875	0.2977642211914063	0		5.78639794921875	0.37050811767578123	0		-0.24730123901367188	5.9537509765625	0		
0.003604851007461548	-0.0011135989427566528	0		0.5271788940429688	-2.475493408203125	0		-1.123404052734375	0.10021700286865234	0		-0.5948502807617188	-2.64234228515625	0		1.504843017578125	-0.8090250244140625	0		2.985031494140625	0.02895114517211914	0		4.49318701171875	0.2861529541015625	0		5.77113623046875	0.3820239562988281	0		-0.2649212646484375	5.9464150390625	0		
0.024095207214355468	-0.004328145027160645	0		0.5506301879882812	-2.478783447265625	0		-1.1248392333984376	0.10051344299316406	0		-0.6312965087890625	-2.640267822265625	0		1.46244921875	-0.8058485107421876	0		3.002702880859375	0.033755882263183594	0		4.49175439453125	0.2863625183105469	0		5.77765087890625	0.349064208984375	0		-0.2662659606933594	5.9466982421875	0		
-0.002231398105621338	-0.0035085530281066895	0		0.4984072265625	-2.471388916015625	0		-1.12208154296875	0.10469757080078125	0		-0.59974560546875	-2.643741455078125	0		1.464193115234375	-0.8016815185546875	0		3.0062119140625	0.026857135772705078	0		4.4804287109375	0.2867764892578125	0		5.7773642578125	0.3441307983398437	0		-0.2675078125	5.9469599609375	0		
0.024599590301513673	-9.031640291213989E-4	0		0.52511083984375	-2.4727900390625	0		-1.10647119140625	0.0975699462890625	0		-0.6637740478515625	-2.632081298828125	0		1.46295166015625	-0.8014675903320313	0		2.98948193359375	0.04940210723876953	0		4.49404248046875	0.2796089782714844	0		5.778802734375	0.36329730224609375	0		-0.2544031524658203	5.9578828125	0		
-0.0015231560468673706	-1.262349933385849E-4	0		0.5239447021484375	-2.47258349609375	0		-1.1203477783203124	0.10909087371826172	0		-0.5990944213867188	-2.63934130859375	0		1.461810546875	-0.8012750854492188	0		2.9929697265625	0.03246345901489258	0		4.48534716796875	0.29893133544921874	0		5.7779970703125	0.36351937866210937	0		-0.26968698120117185	5.9474189453125	0		
-0.0025575339794158937	6.707700341939927E-5	0		0.5457550659179687	-2.477914794921875	0		-1.1295587158203124	0.10148307037353516	0		-0.636181396484375	-2.639327880859375	0		1.4607642822265625	-0.801103515625	0		3.017087158203125	0.03904728698730469	0		4.48704638671875	0.28699346923828123	0		5.77017626953125	0.36928472900390624	0		-0.26965579223632813	5.94659375	0		
-0.006570792198181153	-0.002691696882247925	0		0.5349776611328125	-2.46852685546875	0		-1.0575447998046874	0.09902704620361329	0		-0.61708154296875	-2.63559765625	0		1.4976611328125	-0.8078073120117187	0		2.985171630859375	0.0408742790222168	0		4.48610400390625	0.2871002197265625	0		5.77248193359375	0.3831183471679688	0		-0.272446533203125	5.94981494140625	0		
-0.00743546199798584	-0.002538419008255005	0		0.4930198974609375	-2.470455810546875	0		-1.114529052734375	0.09446040344238281	0		-0.6719932861328125	-2.635217041015625	0		1.4589298095703125	-0.8008202514648437	0		2.99032861328125	0.04184844589233398	0		4.48524365234375	0.28718814086914063	0		5.77708740234375	0.3310401611328125	0		-0.2712928161621094	5.946927734375	0		
-0.005156294822692871	5.280619859695434E-4	0		0.5579994506835938	-2.479815673828125	0		-1.107136962890625	0.10242857360839844	0		-0.591087890625	-2.647920654296875	0		1.464287109375	-0.7938434448242188	0		2.998291015625	0.03074020767211914	0		4.491390625	0.28410165405273435	0		5.77308837890625	0.345163330078125	0		-0.2567962341308594	5.9557255859375	0		
-0.0017812089920043945	0.004554883003234863	0		0.522530517578125	-2.46691796875	0		-1.1078497314453124	0.10256214904785156	0		-0.636556640625	-2.634781005859375	0		1.46047216796875	-0.797677001953125	0		2.99296240234375	0.04792505264282226	0		4.49101904296875	0.29915322875976563	0		5.7707939453125	0.383396728515625	0		-0.25742730712890627	5.95584716796875	0		
-0.006513379096984863	7.491459846496582E-4	0		0.5416229858398437	-2.477271728515625	0		-1.0605487060546874	0.09959573364257812	0		-0.6074011840820313	-2.642345703125	0		1.49769580078125	-0.8034515991210938	0		2.9838701171875	0.028173067092895507	0		4.47311328125	0.28758221435546877	0		5.7609365234375	0.3701116027832031	0		-0.273188720703125	5.947294921875	0		
-0.007085811138153076	8.377100229263305E-4	0		0.5160919799804687	-2.4736259765625	0		-1.1340784912109374	0.10234879302978515	0		-0.6100533447265625	-2.64420361328125	0		1.4971126708984375	-0.8033829956054688	0		2.998294189453125	0.02788279914855957	0		4.4825419921875	0.2873852844238281	0		5.76052783203125	0.3701336669921875	0		-0.27465948486328123	5.9484091796875	0		
0.014338698387145996	-0.00258448600769043	0		0.5404837646484375	-2.477122802734375	0		-1.117741943359375	0.09505529022216797	0		-0.6435131225585937	-2.640375	0		1.4556561279296876	-0.800400390625	0		2.997792724609375	0.02791883087158203	0		4.47204638671875	0.28762841796875	0		5.76016943359375	0.3701353759765625	0		-0.275084716796875	5.94848779296875	0		
-0.008018946647644043	9.741200208663941E-4	0		0.49121527099609374	-2.467960693359375	0		-1.1140823974609375	0.09903919982910156	0		-0.6408875732421875	-2.63637451171875	0		1.45521484375	-0.8003571166992187	0		2.977751708984375	0.04539124298095703	0		4.4816162109375	0.2874075927734375	0		5.76052587890625	0.3648902587890625	0		-0.2592644348144531	5.9561884765625	0		
0.016614116668701173	4.568690061569214E-4	0		0.5427437133789063	-2.4720947265625	0		-1.0542305908203125	0.10773992919921875	0		-0.6412798461914062	-2.63631787109375	0		1.4548447265625	-0.80032568359375	0		2.98611767578125	0.03320352172851562	0		4.48609912109375	0.28029107666015624	0		5.76602197265625	0.36973101806640624	0		-0.2757303466796875	5.94860498046875	0		
-0.008670486450195313	0.001060238003730774	0		0.480712158203125	-2.458662109375	0		-1.1188211669921875	0.0952430191040039	0		-0.60972265625	-2.641997314453125	0		1.4954886474609375	-0.8032340698242187	0		3.010979248046875	0.03963785934448242	0		4.4858115234375	0.2802765502929688	0		5.76581396484375	0.3696813354492188	0		-0.2749759521484375	5.94762255859375	0		
0.01303225326538086	-0.002412061929702759	0		0.5390614013671875	-2.476974853515625	0		-1.1358807373046875	0.1026644058227539	0		-0.6449431762695312	-2.640171875	0		1.4512222900390626	-0.8042264404296875	0		2.976674072265625	0.03640287780761719	0		4.4807509765625	0.28736526489257813	0		5.7626728515625	0.3559391784667969	0		-0.2761123352050781	5.948673828125	0		
-0.012120304107666015	-0.001830227017402649	0		0.49007186889648435	-2.46785595703125	0		-1.1192017822265625	0.09530677795410156	0		-0.5993670654296875	-2.65119140625	0		1.454145263671875	-0.8002951049804687	0		2.987376708984375	0.030140190124511718	0		4.4754375	0.2804508056640625	0		5.75912353515625	0.3698992004394531	0		-0.26196621704101564	5.95937060546875	0		
0.015842981338500976	5.387250185012818E-4	0		0.5439158325195312	-2.47008056640625	0		-1.1111190185546875	0.10313809967041015	0		-0.6719927978515625	-2.628530029296875	0		1.472876953125	-0.8077323608398438	0		3.005183837890625	0.025711252212524415	0		4.47915966796875	0.272327392578125	0		5.772552734375	0.3638856201171875	0		-0.24583351135253906	5.96701318359375	0		
-0.009190357208251954	0.001102303981781006	0		0.5189317016601562	-2.466521728515625	0		-1.123927734375	0.11343531799316406	0		-0.6072510375976562	-2.638001953125	0		1.4949388427734376	-0.803248046875	0		2.994465087890625	0.03993059539794922	0		4.48773291015625	0.299100830078125	0		5.75558935546875	0.3837709350585938	0		-0.26007379150390625	5.95633154296875	0		
0.015816972732543944	5.232859849929809E-4	0		0.5407424926757812	-2.475033935546875	0		-1.059111572265625	0.10395720672607422	0		-0.6422222900390625	-2.636215087890625	0		1.491857421875	-0.8071998291015625	0		2.97809716796875	0.023267822265625	0		4.49047509765625	0.286995849609375	0		5.76545263671875	0.3693020629882813	0		-0.26195355224609373	5.95936669921875	0		
-0.009114269256591798	0.0010728969573974608	0		0.5387472534179687	-2.4770087890625	0		-1.0631385498046875	0.10003640747070312	0		-0.6231329345703125	-2.634661865234375	0		1.4919156494140624	-0.8072255249023438	0		2.97815966796875	0.023234535217285156	0		4.48054150390625	0.2871819763183594	0		5.7496962890625	0.3579777526855469	0		-0.2761070251464844	5.94867041015625	0		
0.012916954040527343	-0.0024499359130859375	0		0.48799203491210935	-2.4698779296875	0		-1.1319017333984376	0.10658269500732422	0		-0.6770469360351562	-2.63445654296875	0		1.451073486328125	-0.804324462890625	0		2.9932607421875	0.022858245849609375	0		4.48064794921875	0.28714053344726564	0		5.756171875	0.35581460571289064	0		-0.275001708984375	5.94762548828125	0		
-0.008867913246154786	0.0010201159715652465	0		0.5171417846679688	-2.469567138671875	0		-1.114923583984375	0.09917247772216797	0		-0.6069763793945312	-2.6380732421875	0		1.454302734375	-0.8004265747070313	0		2.98272314453125	0.03706737518310547	0		4.47563232421875	0.2802146911621094	0		5.7528369140625	0.3697703552246094	0		-0.2463741912841797	5.96795556640625	0		
0.01629615592956543	4.1910600662231444E-4	0		0.517308349609375	-2.46960107421875	0		-1.1274996337890626	0.11043374633789063	0		-0.6397334594726563	-2.6343564453125	0		1.4954158935546875	-0.8033929443359376	0		3.002502197265625	0.019579526901245117	0		4.495775390625	0.2787203063964844	0		5.7634765625	0.3500826416015625	0		-0.2604176330566406	5.95824365234375	0		
